<?xml version="1.0" standalone="no"?>
<!DOCTYPE svg PUBLIC "-//W3C//DTD SVG 20010904//EN"
 "http://www.w3.org/TR/2001/REC-SVG-20010904/DTD/svg10.dtd">
<svg version="1.0" xmlns="http://www.w3.org/2000/svg"
 width="1024.000000pt" height="1024.000000pt" viewBox="0 0 1024.000000 1024.000000"
 preserveAspectRatio="xMidYMid meet">
<metadata>
Created by potrace 1.14, written by Peter Selinger 2001-2017
</metadata>
<g transform="translate(0.000000,1024.000000) scale(0.100000,-0.100000)"
fill="#000000" stroke="none">
<path d="M7807 8617 c-7 -4 -1150 -4 -2542 -1 -1765 5 -2541 4 -2567 -4 -28
-8 -38 -7 -38 1 0 8 -4 7 -12 -1 -8 -8 -51 -12 -126 -12 -62 0 -111 -4 -108
-8 6 -9 -47 -7 -63 3 -6 3 -11 1 -11 -5 0 -6 -5 -8 -10 -5 -6 3 -250 6 -543 6
-581 -1 -613 -4 -683 -57 -19 -15 -34 -29 -34 -33 0 -3 -14 -22 -31 -41 -54
-62 -57 -100 -12 -148 6 -7 14 -31 18 -55 3 -23 7 -634 9 -1357 2 -723 8
-1434 14 -1580 6 -146 13 -449 17 -675 7 -397 7 -410 -12 -421 -16 -10 -19 -9
-20 10 0 11 -1 39 -3 61 -2 36 -3 37 -10 15 -7 -22 -8 -22 -10 -5 -7 63 -19
-90 -21 -275 l-3 -215 49 -108 c26 -60 48 -122 47 -139 0 -17 -30 -92 -66
-167 -36 -75 -90 -192 -119 -261 -30 -69 -132 -298 -227 -510 -179 -398 -214
-478 -393 -887 -59 -133 -122 -275 -140 -315 -33 -72 -34 -75 -29 -185 l4
-113 4197 1 c2308 0 4462 -3 4787 -7 325 -4 602 -4 615 -1 16 4 42 31 72 75
l46 68 -83 199 c-46 110 -121 286 -166 390 -45 105 -110 258 -144 340 -107
254 -410 980 -491 1175 -138 329 -127 281 -122 540 2 124 7 236 11 250 20 82
26 290 32 1240 7 1243 8 1142 -3 1405 -10 231 -4 363 28 624 15 124 16 621 1
648 -8 14 -12 76 -12 177 0 133 -3 163 -21 211 -26 71 -58 108 -117 137 l-47
23 -448 0 c-247 0 -454 -3 -460 -8z m-2061 -406 c-3 -5 -79 -48 -168 -96 -290
-156 -753 -418 -1238 -700 -478 -277 -1181 -674 -1327 -749 -60 -31 -116 -56
-124 -56 -27 -1 -589 -196 -1204 -418 -181 -66 -340 -123 -352 -127 l-23 -6 0
1064 c0 985 1 1065 17 1071 9 4 998 9 2197 13 1200 3 2183 7 2185 9 9 8 42 4
37 -5z m-4252 -5706 c-4 -8 -10 -12 -15 -9 -11 6 -2 24 11 24 5 0 7 -7 4 -15z
m56 -5 c0 -5 -9 -10 -20 -10 -11 0 -20 5 -20 10 0 6 9 10 20 10 11 0 20 -4 20
-10z m3055 -1250 c-4 -6 6 -10 24 -10 16 0 32 -6 34 -12 4 -8 6 -7 6 4 1 9 -7
18 -16 21 -10 2 -3 4 15 4 18 0 29 -3 25 -6 -5 -3 -9 -15 -9 -26 -2 -51 -5
-65 -15 -65 -5 0 -8 4 -4 9 3 6 -3 10 -12 10 -57 2 -73 6 -73 17 0 8 9 11 25
8 19 -3 23 -1 19 11 -7 17 -24 21 -24 5 0 -5 -6 -9 -12 -7 -7 1 -14 -9 -16
-23 -2 -14 -8 -29 -14 -35 -7 -7 -8 -4 -5 10 3 11 9 37 13 58 5 28 11 37 26
37 10 0 16 -4 13 -10z m152 4 c-3 -3 -12 -4 -19 -1 -8 3 -5 6 6 6 11 1 17 -2
13 -5z m106 -1 c-13 -2 -35 -2 -50 0 -16 2 -5 4 22 4 28 0 40 -2 28 -4z m67
-3 c-12 -7 -12 -10 -1 -10 8 0 11 -6 7 -16 -5 -12 -2 -15 11 -10 15 6 15 4 -2
-14 -10 -11 -14 -20 -9 -20 14 1 44 26 38 32 -3 4 0 9 6 13 6 3 9 1 8 -6 -2
-9 7 -13 24 -13 15 1 25 -3 22 -7 -3 -5 -1 -9 4 -9 5 0 15 11 22 25 7 14 17
25 22 25 5 0 6 -4 3 -10 -3 -5 0 -7 8 -4 8 3 17 -1 20 -9 4 -12 -1 -14 -24
-10 -16 2 -29 0 -29 -6 0 -6 7 -8 15 -5 8 4 15 2 15 -2 0 -5 15 -9 33 -9 24 0
31 4 29 17 -1 9 7 22 18 28 16 9 20 8 20 -5 0 -9 -4 -14 -9 -10 -5 3 -13 0
-17 -6 -4 -7 -3 -9 3 -6 6 4 19 0 29 -9 18 -14 18 -15 -3 -9 -15 4 -23 2 -23
-5 0 -9 -11 -10 -36 -5 -32 6 -36 4 -30 -11 6 -17 6 -17 -12 -1 -14 13 -21 14
-31 4 -10 -9 -11 -8 -5 6 4 12 2 16 -8 12 -8 -3 -26 -2 -40 4 -19 7 -25 6 -25
-5 0 -8 6 -13 14 -10 7 3 13 1 13 -4 0 -14 -23 -12 -39 3 -8 6 -11 7 -8 2 3
-7 -35 -11 -109 -13 -63 -2 -114 1 -114 6 0 5 12 8 28 6 15 -2 20 -1 12 3 -8
3 -20 12 -27 19 -10 9 -8 13 12 18 13 3 32 3 42 0 16 -5 16 -4 -1 10 -25 20
-8 21 18 1 24 -18 40 -20 30 -3 -4 6 -3 8 4 4 6 -3 9 -16 7 -27 -4 -17 -2 -19
10 -9 8 7 12 17 8 23 -3 6 -1 7 6 3 7 -5 9 -17 5 -29 -6 -22 -6 -22 13 -2 22
22 27 48 8 41 -7 -2 -18 0 -26 6 -11 8 -10 9 4 4 11 -3 17 0 17 9 0 8 8 15 18
15 14 0 15 -2 2 -10z m90 0 c-19 -13 -30 -13 -30 0 0 6 10 10 23 10 18 0 19
-2 7 -10z m118 3 c-16 -2 -40 -2 -55 0 -16 2 -3 4 27 4 30 0 43 -2 28 -4z m65
0 c-7 -2 -19 -2 -25 0 -7 3 -2 5 12 5 14 0 19 -2 13 -5z m170 0 c-13 -2 -23
-9 -23 -14 0 -6 5 -7 12 -3 7 4 8 3 4 -4 -4 -6 -13 -9 -21 -6 -8 4 -13 10 -10
14 2 4 -7 8 -21 8 -19 0 -24 -5 -20 -17 5 -13 4 -13 -8 2 -14 18 -36 23 -36 8
0 -5 6 -12 13 -14 9 -4 9 -6 0 -6 -7 -1 -17 8 -23 19 -10 19 -8 20 72 19 46
-1 73 -4 61 -6z m54 1 c-3 -3 -12 -4 -19 -1 -8 3 -5 6 6 6 11 1 17 -2 13 -5z
m-701 -26 c-1 -7 -7 -22 -13 -32 -9 -17 -11 -16 -10 12 1 18 7 32 14 32 6 0
10 -6 9 -12z m298 4 c3 -5 -1 -9 -9 -9 -8 0 -12 4 -9 9 3 4 7 8 9 8 2 0 6 -4
9 -8z m116 4 c0 -3 -4 -8 -10 -11 -5 -3 -10 -1 -10 4 0 6 5 11 10 11 6 0 10
-2 10 -4z m104 -42 c3 -8 2 -12 -4 -9 -6 3 -10 10 -10 16 0 14 7 11 14 -7z
m-644 -28 c0 -3 -4 -8 -10 -11 -5 -3 -10 -1 -10 4 0 6 5 11 10 11 6 0 10 -2
10 -4z m640 -11 c0 -2 -9 -3 -19 -2 -11 0 -18 5 -15 9 4 6 34 0 34 -7z"/>
<path d="M4646 1194 c-5 -14 -4 -15 9 -4 17 14 19 20 6 20 -5 0 -12 -7 -15
-16z"/>
<path d="M4770 1200 c0 -5 5 -10 11 -10 5 0 7 5 4 10 -3 6 -8 10 -11 10 -2 0
-4 -4 -4 -10z"/>
<path d="M4821 1196 c-9 -11 -9 -16 0 -22 7 -4 9 -3 5 4 -3 5 0 12 6 15 7 2
10 7 7 11 -3 4 -12 0 -18 -8z"/>
<path d="M992 4838 c0 -105 3 -174 8 -163 5 11 6 -41 3 -116 -4 -87 -2 -138 4
-142 6 -4 9 4 7 18 -1 14 2 25 8 25 8 0 6 18 -10 59 -3 8 -1 12 4 9 5 -4 9 84
9 218 0 178 -3 226 -14 233 -9 6 -10 11 -2 15 12 8 6 26 -9 26 -4 0 -8 -82 -8
-182z m15 -85 c-3 -10 -5 -4 -5 12 0 17 2 24 5 18 2 -7 2 -21 0 -30z"/>
</g>
</svg>
